<svg width="673" height="701" viewBox="0 0 673 701" fill="none" xmlns="http://www.w3.org/2000/svg">
<path d="M529.765 395.442C529.765 395.342 529.365 395.142 529.365 395.142C511.265 388.842 494.365 393.142 480.265 401.242C466.565 409.142 454.365 421.242 443.765 433.642C432.965 446.242 422.765 460.342 413.565 473.042C404.165 486.142 396.065 497.342 388.765 505.542L388.465 505.842L388.265 506.142C382.765 512.842 378.065 518.942 373.765 524.442C366.065 534.242 359.865 542.342 352.865 549.542C343.265 559.443 334.365 565.342 322.365 568.042C308.465 569.142 290.165 564.942 276.065 556.442C261.365 547.542 256.365 537.642 257.465 529.042C258.865 518.142 264.265 512.242 276.265 505.842C281.965 502.842 288.265 500.242 295.865 497.042C296.865 496.642 297.965 496.142 299.065 495.742C307.465 492.242 316.965 488.242 326.165 482.842C359.365 467.242 387.365 444.242 411.465 418.642C461.365 366.542 495.565 302.742 500.765 238.142C505.965 172.542 480.965 108.342 416.365 58.1422C370.965 21.6422 309.765 -4.05781 250.465 1.54219C156.265 8.74219 84.765 79.2422 39.265 153.542C12.065 197.242 -1.23499 242.442 0.465014 287.442C2.16501 332.442 18.665 375.842 48.765 416.142C65.165 438.742 76.765 465.442 88.265 494.442C90.065 498.942 91.865 503.542 93.665 508.142C103.265 532.642 113.365 558.442 126.365 581.942L126.665 582.542L127.065 583.142C165.365 641.442 233.965 694.642 309.565 699.942H309.765H309.965C354.465 701.942 390.065 685.142 419.365 660.842C448.165 637.042 471.865 605.443 492.965 576.742C498.265 569.643 503.965 562.342 509.665 554.942C522.965 537.642 536.565 520.042 546.965 504.842C558.765 489.142 568.165 468.842 567.965 448.442C567.965 437.842 565.165 426.942 558.465 417.242C551.765 407.542 541.965 400.242 529.765 395.442ZM218.265 374.242H217.865H217.365C178.965 371.142 144.365 336.442 142.865 299.342V297.842C142.065 268.042 161.165 223.742 192.065 187.742C223.365 151.242 259.965 130.942 290.065 136.042C326.265 142.642 348.265 163.442 357.165 188.842C366.265 214.742 362.565 248.242 341.465 280.742L341.165 281.142L340.965 281.542C326.965 305.742 307.065 331.142 284.665 349.342C261.965 367.742 239.265 376.942 218.465 374.342L218.265 374.242Z" fill="black"/>
<path d="M662.765 295.842C654.965 284.842 643.465 274.742 630.265 268.542C616.965 262.342 600.465 259.242 583.965 265.042L583.565 265.242L583.165 265.442C567.065 271.942 552.265 285.542 542.665 301.042C533.165 316.442 526.665 337.442 533.965 358.042V358.442C534.065 358.442 534.265 358.842 534.265 358.842C542.565 379.342 560.565 395.742 580.965 402.642C601.965 409.742 626.965 407.042 645.665 386.942C656.065 376.842 665.465 362.942 669.965 347.542C674.665 331.742 674.665 312.642 662.765 295.942V295.842Z" fill="black"/>
</svg>
